<?xml version="1.0" standalone="no"?>
<!DOCTYPE svg PUBLIC "-//W3C//DTD SVG 20010904//EN"
 "http://www.w3.org/TR/2001/REC-SVG-20010904/DTD/svg10.dtd">
<svg version="1.0" xmlns="http://www.w3.org/2000/svg"
 width="152.000000pt" height="40.000000pt" viewBox="0 0 312.000000 70.000000"
 preserveAspectRatio="xMidYMid meet">

<g transform="translate(0.000000,70.000000) scale(0.100000,-0.100000)"
fill="#ffffff" stroke="none">
<path d="M97 410 c-8 -22 -12 -40 -7 -40 4 0 13 14 19 32 13 37 11 38 45 -29
l26 -53 -51 0 c-46 0 -51 2 -46 20 10 39 -9 19 -30 -30 -12 -27 -18 -50 -15
-50 4 0 12 10 17 23 8 18 19 22 67 25 54 3 59 1 70 -23 6 -14 15 -25 19 -25 5
0 -3 26 -17 58 -15 31 -33 74 -42 95 -19 48 -35 47 -55 -3z"/>
<path d="M390 350 c0 -123 18 -134 22 -14 l3 87 34 -52 c31 -49 50 -60 59 -33
2 7 -2 10 -10 7 -8 -3 -27 16 -48 50 -51 80 -60 74 -60 -45z"/>
<path d="M540 405 c-34 -49 -29 -61 7 -17 l22 27 1 -82 c0 -49 4 -83 10 -83 6
0 10 40 10 100 0 57 -4 100 -10 100 -5 0 -23 -20 -40 -45z"/>
<path d="M841 431 c-31 -57 -79 -171 -72 -171 4 0 13 11 19 25 10 22 18 25 67
25 49 0 57 -3 67 -24 6 -14 16 -27 23 -30 7 -2 4 14 -10 42 -12 26 -32 71 -45
100 -25 56 -34 62 -49 33z m43 -53 l25 -53 -46 -3 c-25 -2 -48 -1 -51 2 -5 6
37 106 45 106 2 0 14 -24 27 -52z"/>
<path d="M1132 353 l-2 -103 63 2 c34 0 47 3 27 5 -83 8 -79 3 -83 106 l-3 92
-2 -102z"/>
<path d="M1430 350 c0 -60 4 -100 10 -100 6 0 10 40 10 100 0 60 -4 100 -10
100 -6 0 -10 -40 -10 -100z"/>
<path d="M1650 441 l35 -6 3 -92 c1 -51 7 -93 12 -93 5 0 11 42 12 93 l3 92
35 6 c22 4 3 6 -50 6 -53 0 -72 -2 -50 -6z"/>
<path d="M1910 435 c0 -12 19 -15 115 -15 96 0 115 3 115 15 0 12 -19 15 -115
15 -96 0 -115 -3 -115 -15z"/>
<path d="M2293 426 c-24 -21 -28 -32 -28 -76 0 -44 4 -55 28 -76 18 -15 41
-24 63 -24 39 0 74 15 74 31 0 6 -10 3 -22 -5 -46 -33 -101 -15 -124 40 -34
81 53 158 123 109 12 -8 24 -11 27 -7 8 13 -40 32 -79 32 -21 0 -44 -9 -62
-24z"/>
<path d="M2614 350 c0 -58 1 -84 3 -57 l4 47 65 0 64 0 0 -45 c0 -25 5 -45 10
-45 6 0 10 40 10 100 0 60 -4 100 -10 100 -5 0 -10 -20 -10 -45 l0 -45 -64 0
-65 0 -4 48 c-2 26 -3 0 -3 -58z"/>
<path d="M1915 359 c-15 -23 15 -30 116 -27 84 2 104 6 104 18 0 12 -20 16
-107 18 -71 2 -109 -1 -113 -9z"/>
<path d="M1910 265 c0 -12 19 -15 115 -15 96 0 115 3 115 15 0 12 -19 15 -115
15 -96 0 -115 -3 -115 -15z"/>
</g>
</svg>
